# xmcd
#
# Track frame offsets:
#	150
#	25576
#	41513
#	57623
#	75026
#	91671
#	113100
#	127733
#	144760
#	163460
#	177840
#
# Disc length: 2621 seconds
# Revision: 0
# Processed by: cddbd v1.5.2PL0 Copyright (c) Steve Scherf et al.
# Submitted via: dBpowerAMP V12.0
#
DISCID=7a0a3b0b
DTITLE=Guy Clark - My favorite picture of you
DYEAR=2013
DGENRE=Country
TTITLE0=Commeal waltz
TTITLE1=My favorite picture of you
TTITLE2=Hell bent on a heartache
TTITLE3=El coyote
TTITLE4=Heroes
TTITLE5=Rain in Durango
TTITLE6=Good advice
TTITLE7=The death of sis draper
TTITLE8=Walzing fool
TTITLE9=The high price of inspiration
TTITLE10=I'll show me
EXTD=
EXTT0=
EXTT1=
EXTT2=
EXTT3=
EXTT4=
EXTT5=
EXTT6=
EXTT7=
EXTT8=
EXTT9=
EXTT10=
PLAYORDER=
